<svg width="133" height="16" viewBox="0 0 133 16" fill="none" xmlns="http://www.w3.org/2000/svg">
<g id="Logo">
<path d="M0.390696 16V13.131L13.6054 13.1531C14.2796 13.1531 14.7928 13.006 15.1452 12.7117C15.5129 12.4028 15.6968 11.9099 15.6968 11.2331C15.6968 10.5563 15.5129 10.0708 15.1452 9.77655C14.7928 9.46759 14.2796 9.3131 13.6054 9.3131H5.37781C3.67714 9.3131 2.35184 8.92322 1.40191 8.14345C0.467303 7.34897 0 6.18667 0 4.65655C0 3.12644 0.467303 1.97149 1.40191 1.19172C2.35184 0.397241 3.67714 0 5.37781 0H18.2938V2.86897L5.76851 2.8469C5.10969 2.8469 4.59642 2.99402 4.22871 3.28828C3.861 3.56782 3.67714 4.02391 3.67714 4.65655C3.67714 5.2892 3.861 5.75264 4.22871 6.0469C4.59642 6.32644 5.10969 6.46621 5.76851 6.46621H13.9961C15.6968 6.46621 17.0144 6.87081 17.949 7.68C18.899 8.47448 19.3739 9.65885 19.3739 11.2331C19.3739 12.7926 18.899 13.977 17.949 14.7862C17.0144 15.5954 15.6968 16 13.9961 16H0.390696Z" fill="white"/>
<path d="M21.9093 15.8897V0.110345H25.5865V6.57655H37.1694V0.110345H40.8466V15.8897H37.1694V9.44552H25.5865V15.8897H21.9093Z" fill="white"/>
<path d="M42.9119 15.8897L50.3122 0.110345H55.9887L63.389 15.8897H59.3901L57.8273 12.5572H48.4736L46.9108 15.8897H42.9119ZM49.8065 9.68828H56.4943L53.2998 2.86897H53.0011L49.8065 9.68828Z" fill="white"/>
<path d="M65.4604 15.8897V0.154482H69.1376V6.57655H74.6073L80.0081 0.154482H84.5815L77.8248 8.01103L84.5815 15.8897H80.0081L74.5843 9.44552H69.1376V15.8897H65.4604Z" fill="white"/>
<path d="M86.6524 15.8897V0.110345H104.67V2.97931H90.3296V6.46621H103.337V9.33517H90.3296V13.0207H104.67V15.8897H86.6524Z" fill="white"/>
<path d="M107.418 15.8897V0.110345H121.184C122.885 0.110345 124.203 0.522298 125.137 1.34621C126.087 2.17011 126.562 3.42069 126.562 5.09793C126.562 6.52506 126.217 7.64322 125.528 8.45241C124.838 9.26161 123.858 9.7692 122.586 9.97517L126.378 15.8897H122.196L118.679 10.0855H111.095V15.8897H107.418ZM120.748 2.97931H111.095V7.19448L120.748 7.21655C121.422 7.21655 121.935 7.05471 122.287 6.73104C122.655 6.40736 122.839 5.86299 122.839 5.09793C122.839 4.31816 122.655 3.77379 122.287 3.46483C121.935 3.14115 121.422 2.97931 120.748 2.97931Z" fill="white"/>
<path d="M129.323 15.8897V12.7338H133V15.8897H129.323Z" fill="white"/>
</g>
</svg>
