<svg width="19" height="18" viewBox="0 0 19 18" fill="none" xmlns="http://www.w3.org/2000/svg">
<path d="M17.5 17L12.2826 11.7826M1.5 7.26087C1.5 8.08306 1.66194 8.8972 1.97658 9.6568C2.29122 10.4164 2.75239 11.1066 3.33377 11.688C3.91514 12.2693 4.60533 12.7305 5.36494 13.0452C6.12454 13.3598 6.93868 13.5217 7.76087 13.5217C8.58306 13.5217 9.3972 13.3598 10.1568 13.0452C10.9164 12.7305 11.6066 12.2693 12.188 11.688C12.7693 11.1066 13.2305 10.4164 13.5452 9.6568C13.8598 8.8972 14.0217 8.08306 14.0217 7.26087C14.0217 5.60038 13.3621 4.00791 12.188 2.83377C11.0138 1.65963 9.42136 1 7.76087 1C6.10038 1 4.50791 1.65963 3.33377 2.83377C2.15963 4.00791 1.5 5.60038 1.5 7.26087V7.26087Z" stroke="#151515" stroke-width="1.2" stroke-linecap="round" stroke-linejoin="round"/>
</svg>
